<?xml version="1.0" encoding="utf-8"?>
<!-- Generator: Adobe Illustrator 26.2.1, SVG Export Plug-In . SVG Version: 6.00 Build 0)  -->
<svg version="1.1" id="Layer_1" xmlns="http://www.w3.org/2000/svg" xmlns:xlink="http://www.w3.org/1999/xlink" x="0px" y="0px"
	 viewBox="0 0 512 560" style="enable-background:new 0 0 512 560;" xml:space="preserve">
<style type="text/css">
	.st0{fill:#24A6C6;}
</style>
<g>
	<path class="st0" d="M124.7,560.1c-5.4,0-10.6-1.3-15.4-3.8c-10.7-5.7-17.3-16.7-17.3-28.7V482h-6.5C38.2,481.9,0,443.9,0,397.2
		V84.5C0,37.8,38.2-0.1,85.3-0.1h341.4c47.1,0,85.3,38,85.3,84.7v312.7c0,46.7-38.3,84.7-85.3,84.7H252.7l-109.9,72.6
		C137.5,558.3,131.1,560.1,124.7,560.1z M85.3,65.1c-10.8,0-19.6,8.7-19.6,19.5v312.7c0,10.8,8.8,19.5,19.6,19.5h39.4
		c18.1,0,32.8,14.6,32.8,32.5v17.3l67.1-44.4c5.4-3.5,11.7-5.4,18.2-5.4h183.9c10.8,0,19.6-8.7,19.6-19.5V84.5
		c0-10.8-8.8-19.5-19.6-19.5H85.3z"/>
	<path class="st0" d="M377.6,273.5h-75c-18.1,0-32.8-14.6-32.8-32.5c0-18,14.7-32.5,32.8-32.5h75c18.1,0,32.8,14.6,32.8,32.5
		C410.4,258.9,395.7,273.5,377.6,273.5z"/>
	<path class="st0" d="M209.4,273.5h-75c-18.1,0-32.8-14.6-32.8-32.5c0-18,14.7-32.5,32.8-32.5h75c18.1,0,32.8,14.6,32.8,32.5
		C242.2,258.9,227.5,273.5,209.4,273.5z"/>
</g>
</svg>
