<svg width="96" height="96" viewBox="0 0 96 96" fill="none" xmlns="http://www.w3.org/2000/svg">
<circle cx="48" cy="48" r="48" fill="#F0B100"/>
<path d="M22.1257 45.125C22.0462 44.8485 21.9344 44.6042 21.7905 44.392C21.6465 44.1761 21.4704 43.9943 21.2621 43.8466C21.0575 43.6951 20.8227 43.5795 20.5575 43.5C20.2962 43.4205 20.0064 43.3807 19.6882 43.3807C19.0935 43.3807 18.5708 43.5284 18.12 43.8239C17.6731 44.1193 17.3246 44.5492 17.0746 45.1136C16.8246 45.6742 16.6996 46.3598 16.6996 47.1705C16.6996 47.9811 16.8227 48.6705 17.0689 49.2386C17.3151 49.8068 17.6636 50.2405 18.1143 50.5398C18.5651 50.8352 19.0973 50.983 19.7109 50.983C20.2678 50.983 20.7431 50.8845 21.1371 50.6875C21.5348 50.4867 21.8378 50.2045 22.0462 49.8409C22.2583 49.4773 22.3643 49.0473 22.3643 48.5511L22.8643 48.625H19.8643V46.7727H24.7337V48.2386C24.7337 49.2614 24.5178 50.1402 24.0859 50.875C23.6541 51.6061 23.0594 52.1705 22.3018 52.5682C21.5443 52.9621 20.6768 53.1591 19.6996 53.1591C18.6087 53.1591 17.6503 52.9186 16.8246 52.4375C15.9988 51.9527 15.3549 51.2652 14.8928 50.375C14.4344 49.4811 14.2053 48.4205 14.2053 47.1932C14.2053 46.25 14.3416 45.4091 14.6143 44.6705C14.8909 43.928 15.2772 43.2992 15.7734 42.7841C16.2696 42.2689 16.8473 41.8769 17.5064 41.608C18.1655 41.339 18.8795 41.2045 19.6484 41.2045C20.3075 41.2045 20.9212 41.3011 21.4893 41.4943C22.0575 41.6837 22.5613 41.9527 23.0007 42.3011C23.4439 42.6496 23.8056 43.0644 24.0859 43.5455C24.3662 44.0227 24.5462 44.5492 24.6257 45.125H22.1257ZM32.1328 49.2841V44.2727H34.5533V53H32.2294V51.4148H32.1385C31.9415 51.9261 31.6139 52.3371 31.1555 52.6477C30.701 52.9583 30.1461 53.1136 29.4908 53.1136C28.9074 53.1136 28.3942 52.9811 27.951 52.7159C27.5078 52.4508 27.1612 52.0739 26.9112 51.5852C26.665 51.0966 26.54 50.5114 26.5362 49.8295V44.2727H28.9567V49.3977C28.9605 49.9129 29.0987 50.3201 29.3714 50.6193C29.6442 50.9186 30.0097 51.0682 30.468 51.0682C30.7597 51.0682 31.0324 51.0019 31.2862 50.8693C31.54 50.733 31.7446 50.5322 31.8999 50.267C32.0589 50.0019 32.1366 49.6742 32.1328 49.2841ZM36.4893 53V44.2727H38.9098V53H36.4893ZM37.7053 43.1477C37.3454 43.1477 37.0367 43.0284 36.7791 42.7898C36.5253 42.5473 36.3984 42.2576 36.3984 41.9205C36.3984 41.5871 36.5253 41.3011 36.7791 41.0625C37.0367 40.8201 37.3454 40.6989 37.7053 40.6989C38.0651 40.6989 38.3719 40.8201 38.6257 41.0625C38.8833 41.3011 39.0121 41.5871 39.0121 41.9205C39.0121 42.2576 38.8833 42.5473 38.6257 42.7898C38.3719 43.0284 38.0651 43.1477 37.7053 43.1477ZM44.0646 53.142C43.4018 53.142 42.8014 52.9716 42.2635 52.6307C41.7294 52.286 41.3052 51.7803 40.9908 51.1136C40.6802 50.4432 40.5249 49.6212 40.5249 48.6477C40.5249 47.6477 40.6858 46.8163 41.0078 46.1534C41.3298 45.4867 41.7578 44.9886 42.2919 44.6591C42.8298 44.3258 43.4188 44.1591 44.0589 44.1591C44.5476 44.1591 44.9548 44.2424 45.2805 44.4091C45.6101 44.572 45.8752 44.7765 46.076 45.0227C46.2805 45.2652 46.4358 45.5038 46.5419 45.7386H46.6158V41.3636H49.0305V53H46.6442V51.6023H46.5419C46.4283 51.8447 46.2673 52.0852 46.0589 52.3239C45.8544 52.5587 45.5874 52.7538 45.2578 52.9091C44.9321 53.0644 44.5343 53.142 44.0646 53.142ZM44.8317 51.2159C45.2218 51.2159 45.5514 51.1098 45.8203 50.8977C46.093 50.6818 46.3014 50.3807 46.4453 49.9943C46.593 49.608 46.6669 49.1553 46.6669 48.6364C46.6669 48.1174 46.5949 47.6667 46.451 47.2841C46.3071 46.9015 46.0987 46.6061 45.826 46.3977C45.5533 46.1894 45.2218 46.0852 44.8317 46.0852C44.4339 46.0852 44.0987 46.1932 43.826 46.4091C43.5533 46.625 43.3468 46.9242 43.2067 47.3068C43.0665 47.6894 42.9964 48.1326 42.9964 48.6364C42.9964 49.1439 43.0665 49.5928 43.2067 49.983C43.3506 50.3693 43.5571 50.6723 43.826 50.892C44.0987 51.108 44.4339 51.2159 44.8317 51.2159ZM54.9979 53.1705C54.1001 53.1705 53.3274 52.9886 52.6797 52.625C52.0357 52.2576 51.5395 51.7386 51.1911 51.0682C50.8426 50.3939 50.6683 49.5966 50.6683 48.6761C50.6683 47.7784 50.8426 46.9905 51.1911 46.3125C51.5395 45.6345 52.0301 45.1061 52.6626 44.7273C53.299 44.3485 54.0452 44.1591 54.9013 44.1591C55.477 44.1591 56.013 44.2519 56.5092 44.4375C57.0092 44.6193 57.4448 44.8939 57.8161 45.2614C58.1911 45.6288 58.4827 46.0909 58.6911 46.6477C58.8994 47.2008 59.0036 47.8485 59.0036 48.5909V49.2557H51.6342V47.7557H56.7251C56.7251 47.4072 56.6494 47.0985 56.4979 46.8295C56.3464 46.5606 56.1361 46.3504 55.8672 46.1989C55.602 46.0436 55.2933 45.9659 54.9411 45.9659C54.5736 45.9659 54.2479 46.0511 53.9638 46.2216C53.6835 46.3883 53.4638 46.6136 53.3047 46.8977C53.1456 47.178 53.0642 47.4905 53.0604 47.8352V49.2614C53.0604 49.6932 53.1399 50.0663 53.299 50.3807C53.4619 50.6951 53.6911 50.9375 53.9865 51.108C54.282 51.2784 54.6323 51.3636 55.0376 51.3636C55.3066 51.3636 55.5528 51.3258 55.7763 51.25C55.9998 51.1742 56.1911 51.0606 56.3501 50.9091C56.5092 50.7576 56.6304 50.572 56.7138 50.3523L58.9524 50.5C58.8388 51.0379 58.6058 51.5076 58.2536 51.9091C57.9051 52.3068 57.4543 52.6174 56.9013 52.8409C56.352 53.0606 55.7176 53.1705 54.9979 53.1705ZM67.8445 46.7614L65.6286 46.8977C65.5907 46.7083 65.5092 46.5379 65.3842 46.3864C65.2592 46.2311 65.0945 46.108 64.8899 46.017C64.6892 45.9223 64.4486 45.875 64.1683 45.875C63.7933 45.875 63.477 45.9545 63.2195 46.1136C62.9619 46.2689 62.8331 46.4773 62.8331 46.7386C62.8331 46.947 62.9164 47.1231 63.0831 47.267C63.2498 47.411 63.5357 47.5265 63.9411 47.6136L65.5206 47.9318C66.3691 48.1061 67.0017 48.3864 67.4183 48.7727C67.835 49.1591 68.0433 49.6667 68.0433 50.2955C68.0433 50.8674 67.8748 51.3693 67.5376 51.8011C67.2043 52.233 66.746 52.5701 66.1626 52.8125C65.5831 53.0511 64.9145 53.1705 64.157 53.1705C63.0017 53.1705 62.0812 52.9299 61.3956 52.4489C60.7138 51.964 60.3142 51.3049 60.1967 50.4716L62.5774 50.3466C62.6494 50.6989 62.8236 50.9678 63.1001 51.1534C63.3767 51.3352 63.7308 51.4261 64.1626 51.4261C64.5869 51.4261 64.9278 51.3447 65.1854 51.1818C65.4467 51.0152 65.5793 50.8011 65.5831 50.5398C65.5793 50.3201 65.4865 50.1402 65.3047 50C65.1229 49.8561 64.8426 49.7462 64.4638 49.6705L62.9524 49.3693C62.1001 49.1989 61.4657 48.9034 61.049 48.483C60.6361 48.0625 60.4297 47.5265 60.4297 46.875C60.4297 46.3144 60.5812 45.8314 60.8842 45.4261C61.1911 45.0208 61.621 44.7083 62.174 44.4886C62.7308 44.2689 63.3823 44.1591 64.1286 44.1591C65.2308 44.1591 66.0982 44.392 66.7308 44.858C67.3672 45.3239 67.7384 45.9583 67.8445 46.7614Z" fill="#131919"/>
<path d="M74.895 44.3136C75.1793 44.0243 75.6455 43.9874 75.9692 44.255L75.9683 44.256L79.8179 47.4181L79.9263 47.5187C80.1649 47.7647 80.3003 48.0941 80.3003 48.4415C80.3002 48.7888 80.1648 49.1175 79.9263 49.3634L79.8179 49.464L75.9683 52.6281L75.9673 52.6271C75.8178 52.7509 75.6368 52.8077 75.4634 52.8077C75.2594 52.8076 75.0552 52.7289 74.9019 52.5763L74.8394 52.506C74.5657 52.1601 74.6153 51.6538 74.9595 51.3722L78.5259 48.4406L74.9595 45.5099C74.6155 45.2284 74.566 44.7229 74.8394 44.3771L74.8403 44.3751L74.895 44.3136Z" fill="#131919" stroke="#131919" stroke-width="0.6"/>
</svg>
