<svg width="29" height="29" viewBox="0 0 29 29" fill="none" xmlns="http://www.w3.org/2000/svg">
<g clip-path="url(#clip0_106_266)">
<path d="M14.5693 3.41565C18.2716 3.41565 18.71 3.43188 20.166 3.49684C21.5192 3.55637 22.2499 3.78371 22.737 3.97315C23.3811 4.22213 23.8466 4.52524 24.3283 5.00697C24.8155 5.49411 25.1132 5.95418 25.3621 6.59829C25.5516 7.08543 25.7789 7.82155 25.8385 9.1693C25.9034 10.6307 25.9196 11.0691 25.9196 14.766C25.9196 18.4683 25.9034 18.9067 25.8385 20.3627C25.7789 21.7158 25.5516 22.4466 25.3621 22.9337C25.1132 23.5778 24.81 24.0433 24.3283 24.525C23.8412 25.0122 23.3811 25.3099 22.737 25.5588C22.2499 25.7483 21.5137 25.9756 20.166 26.0351C18.7046 26.1001 18.2661 26.1163 14.5693 26.1163C10.867 26.1163 10.4286 26.1001 8.97261 26.0351C7.61944 25.9756 6.88873 25.7483 6.4016 25.5588C5.75749 25.3099 5.292 25.0067 4.81027 24.525C4.32313 24.0379 4.02544 23.5778 3.77646 22.9337C3.58701 22.4466 3.35968 21.7104 3.30014 20.3627C3.23519 18.9013 3.21895 18.4628 3.21895 14.766C3.21895 11.0637 3.23519 10.6253 3.30014 9.1693C3.35968 7.81614 3.58701 7.08543 3.77646 6.59829C4.02544 5.95418 4.32855 5.48869 4.81027 5.00697C5.29741 4.51983 5.75749 4.22213 6.4016 3.97315C6.88873 3.78371 7.62486 3.55637 8.97261 3.49684C10.4286 3.43188 10.867 3.41565 14.5693 3.41565ZM14.5693 0.92041C10.8075 0.92041 10.3366 0.936648 8.85894 1.0016C7.3867 1.06655 6.37453 1.30471 5.49768 1.64571C4.58294 2.00294 3.80893 2.47384 3.04033 3.24785C2.26632 4.01645 1.79542 4.79046 1.43819 5.69979C1.09719 6.58205 0.859032 7.58881 0.794081 9.06105C0.729129 10.5441 0.712891 11.015 0.712891 14.7768C0.712891 18.5386 0.729129 19.0095 0.794081 20.4872C0.859032 21.9594 1.09719 22.9716 1.43819 23.8484C1.79542 24.7632 2.26632 25.5372 3.04033 26.3058C3.80893 27.0744 4.58294 27.5507 5.49227 27.9025C6.37453 28.2435 7.38129 28.4817 8.85353 28.5466C10.3312 28.6116 10.8021 28.6278 14.5639 28.6278C18.3257 28.6278 18.7966 28.6116 20.2742 28.5466C21.7465 28.4817 22.7587 28.2435 23.6355 27.9025C24.5448 27.5507 25.3188 27.0744 26.0874 26.3058C26.856 25.5372 27.3323 24.7632 27.6842 23.8538C28.0252 22.9716 28.2633 21.9648 28.3283 20.4926C28.3932 19.0149 28.4095 18.544 28.4095 14.7822C28.4095 11.0204 28.3932 10.5495 28.3283 9.07187C28.2633 7.59963 28.0252 6.58746 27.6842 5.71061C27.3432 4.79046 26.8723 4.01645 26.0983 3.24785C25.3297 2.47926 24.5557 2.00294 23.6463 1.65112C22.7641 1.31012 21.7573 1.07196 20.2851 1.00701C18.802 0.936648 18.3311 0.92041 14.5693 0.92041Z" fill="#71717B"/>
<path d="M14.5693 7.65918C10.6397 7.65918 7.45166 10.8472 7.45166 14.7768C7.45166 18.7064 10.6397 21.8945 14.5693 21.8945C18.4989 21.8945 21.687 18.7064 21.687 14.7768C21.687 10.8472 18.4989 7.65918 14.5693 7.65918ZM14.5693 19.3938C12.0199 19.3938 9.95231 17.3262 9.95231 14.7768C9.95231 12.2275 12.0199 10.1598 14.5693 10.1598C17.1187 10.1598 19.1863 12.2275 19.1863 14.7768C19.1863 17.3262 17.1187 19.3938 14.5693 19.3938Z" fill="#71717B"/>
<path d="M23.63 7.37775C23.63 8.29791 22.8831 9.03944 21.9683 9.03944C21.0482 9.03944 20.3066 8.29249 20.3066 7.37775C20.3066 6.4576 21.0536 5.71606 21.9683 5.71606C22.8831 5.71606 23.63 6.46301 23.63 7.37775Z" fill="#71717B"/>
</g>
<defs>
<clipPath id="clip0_106_266">
<rect width="27.7128" height="27.7128" fill="white" transform="translate(0.712891 0.92041)"/>
</clipPath>
</defs>
</svg>
