<svg width="29" height="29" viewBox="0 0 29 29" fill="none" xmlns="http://www.w3.org/2000/svg">
<g clip-path="url(#clip0_106_267)">
<path d="M26.0872 0.92041H2.47177C1.34052 0.92041 0.425781 1.8135 0.425781 2.91768V26.6305C0.425781 27.7347 1.34052 28.6332 2.47177 28.6332H26.0872C27.2184 28.6332 28.1386 27.7347 28.1386 26.636V2.91768C28.1386 1.8135 27.2184 0.92041 26.0872 0.92041ZM8.64761 24.5358H4.53399V11.3073H8.64761V24.5358ZM6.5908 9.50489C5.27011 9.50489 4.20382 8.43859 4.20382 7.12332C4.20382 5.80804 5.27011 4.74175 6.5908 4.74175C7.90608 4.74175 8.97237 5.80804 8.97237 7.12332C8.97237 8.43318 7.90608 9.50489 6.5908 9.50489ZM24.0412 24.5358H19.933V18.1056C19.933 16.5738 19.9059 14.5982 17.795 14.5982C15.657 14.5982 15.3322 16.2707 15.3322 17.9973V24.5358H11.2294V11.3073H15.1699V13.1151H15.224C15.7707 12.0759 17.113 10.9771 19.1103 10.9771C23.2726 10.9771 24.0412 13.7159 24.0412 17.2775V24.5358Z" fill="#71717B"/>
</g>
<defs>
<clipPath id="clip0_106_267">
<rect width="27.7128" height="27.7128" fill="white" transform="translate(0.425781 0.92041)"/>
</clipPath>
</defs>
</svg>
