<svg width="209" height="41" viewBox="0 0 209 41" fill="none" xmlns="http://www.w3.org/2000/svg">
<path d="M9.02414 40.9204C8.6366 40.9204 8.25829 40.8279 7.90766 40.6431C7.13258 40.2271 6.65277 39.4229 6.65277 38.5448V35.2172H6.18218C2.76814 35.208 0 32.4349 0 29.0241V6.18381C0 2.77301 2.76814 0 6.17296 0H30.874C34.2788 0 37.047 2.77301 37.047 6.18381V29.0241C37.047 32.4349 34.2788 35.208 30.874 35.208H18.2882L10.3344 40.5136C9.94685 40.7909 9.4855 40.9204 9.02414 40.9204ZM6.17296 4.76033C5.38865 4.76033 4.75198 5.39812 4.75198 6.18381V29.0241C4.75198 29.8098 5.38865 30.4476 6.17296 30.4476H9.02414C10.3344 30.4476 11.3955 31.5106 11.3955 32.8232V34.0895L16.249 30.8451C16.6365 30.5863 17.0979 30.4476 17.5685 30.4476H30.874C31.6583 30.4476 32.295 29.8098 32.295 29.0241V6.18381C32.295 5.39812 31.6583 4.76033 30.874 4.76033H6.17296Z" fill="#24A6C6"/>
<path d="M27.3213 19.984H21.8958C20.5855 19.984 19.5244 18.921 19.5244 17.6085C19.5244 16.2959 20.5855 15.2329 21.8958 15.2329H27.3213C28.6316 15.2329 29.6927 16.2959 29.6927 17.6085C29.6927 18.921 28.6316 19.984 27.3213 19.984Z" fill="#24A6C6"/>
<path d="M15.1509 19.984H9.72538C8.41513 19.984 7.354 18.921 7.354 17.6085C7.354 16.2959 8.41513 15.2329 9.72538 15.2329H15.1509C16.4612 15.2329 17.5223 16.2959 17.5223 17.6085C17.5223 18.921 16.4612 19.984 15.1509 19.984Z" fill="#24A6C6"/>
<path d="M51.8633 8.53027H54.8398L59.2227 21.0576L63.6055 8.53027H66.582L60.418 25.5928H58.0273L51.8633 8.53027ZM50.2578 8.53027H53.2227L53.7617 20.7412V25.5928H50.2578V8.53027ZM65.2227 8.53027H68.1992V25.5928H64.6836V20.7412L65.2227 8.53027ZM70.5312 19.3818V19.1357C70.5312 18.2061 70.6641 17.3506 70.9297 16.5693C71.1953 15.7803 71.582 15.0967 72.0898 14.5186C72.5977 13.9404 73.2227 13.4912 73.9648 13.1709C74.707 12.8428 75.5586 12.6787 76.5195 12.6787C77.4805 12.6787 78.3359 12.8428 79.0859 13.1709C79.8359 13.4912 80.4648 13.9404 80.9727 14.5186C81.4883 15.0967 81.8789 15.7803 82.1445 16.5693C82.4102 17.3506 82.543 18.2061 82.543 19.1357V19.3818C82.543 20.3037 82.4102 21.1592 82.1445 21.9482C81.8789 22.7295 81.4883 23.4131 80.9727 23.999C80.4648 24.5771 79.8398 25.0264 79.0977 25.3467C78.3555 25.667 77.5039 25.8271 76.543 25.8271C75.582 25.8271 74.7266 25.667 73.9766 25.3467C73.2344 25.0264 72.6055 24.5771 72.0898 23.999C71.582 23.4131 71.1953 22.7295 70.9297 21.9482C70.6641 21.1592 70.5312 20.3037 70.5312 19.3818ZM73.9062 19.1357V19.3818C73.9062 19.9131 73.9531 20.4092 74.0469 20.8701C74.1406 21.3311 74.2891 21.7373 74.4922 22.0889C74.7031 22.4326 74.9766 22.7021 75.3125 22.8975C75.6484 23.0928 76.0586 23.1904 76.543 23.1904C77.0117 23.1904 77.4141 23.0928 77.75 22.8975C78.0859 22.7021 78.3555 22.4326 78.5586 22.0889C78.7617 21.7373 78.9102 21.3311 79.0039 20.8701C79.1055 20.4092 79.1562 19.9131 79.1562 19.3818V19.1357C79.1562 18.6201 79.1055 18.1357 79.0039 17.6826C78.9102 17.2217 78.7578 16.8154 78.5469 16.4639C78.3438 16.1045 78.0742 15.8232 77.7383 15.6201C77.4023 15.417 76.9961 15.3154 76.5195 15.3154C76.043 15.3154 75.6367 15.417 75.3008 15.6201C74.9727 15.8232 74.7031 16.1045 74.4922 16.4639C74.2891 16.8154 74.1406 17.2217 74.0469 17.6826C73.9531 18.1357 73.9062 18.6201 73.9062 19.1357ZM87.9922 15.6787V25.5928H84.6172V12.9131H87.793L87.9922 15.6787ZM91.8125 12.8311L91.7539 15.96C91.5898 15.9365 91.3906 15.917 91.1562 15.9014C90.9297 15.8779 90.7227 15.8662 90.5352 15.8662C90.0586 15.8662 89.6445 15.9287 89.293 16.0537C88.9492 16.1709 88.6602 16.3467 88.4258 16.5811C88.1992 16.8154 88.0273 17.1006 87.9102 17.4365C87.8008 17.7725 87.7383 18.1553 87.7227 18.585L87.043 18.374C87.043 17.5537 87.125 16.7998 87.2891 16.1123C87.4531 15.417 87.6914 14.8115 88.0039 14.2959C88.3242 13.7803 88.7148 13.3818 89.1758 13.1006C89.6367 12.8193 90.1641 12.6787 90.7578 12.6787C90.9453 12.6787 91.1367 12.6943 91.332 12.7256C91.5273 12.749 91.6875 12.7842 91.8125 12.8311ZM100.262 22.0889C100.262 21.8467 100.191 21.6279 100.051 21.4326C99.9102 21.2373 99.6484 21.0576 99.2656 20.8936C98.8906 20.7217 98.3477 20.5654 97.6367 20.4248C96.9961 20.2842 96.3984 20.1084 95.8438 19.8975C95.2969 19.6787 94.8203 19.417 94.4141 19.1123C94.0156 18.8076 93.7031 18.4482 93.4766 18.0342C93.25 17.6123 93.1367 17.1318 93.1367 16.5928C93.1367 16.0615 93.25 15.5615 93.4766 15.0928C93.7109 14.624 94.043 14.21 94.4727 13.8506C94.9102 13.4834 95.4414 13.1982 96.0664 12.9951C96.6992 12.7842 97.4102 12.6787 98.1992 12.6787C99.3008 12.6787 100.246 12.8545 101.035 13.2061C101.832 13.5576 102.441 14.042 102.863 14.6592C103.293 15.2686 103.508 15.9639 103.508 16.7451H100.133C100.133 16.417 100.062 16.124 99.9219 15.8662C99.7891 15.6006 99.5781 15.3936 99.2891 15.2451C99.0078 15.0889 98.6406 15.0107 98.1875 15.0107C97.8125 15.0107 97.4883 15.0771 97.2148 15.21C96.9414 15.335 96.7305 15.5068 96.582 15.7256C96.4414 15.9365 96.3711 16.1709 96.3711 16.4287C96.3711 16.624 96.4102 16.7998 96.4883 16.9561C96.5742 17.1045 96.7109 17.2412 96.8984 17.3662C97.0859 17.4912 97.3281 17.6084 97.625 17.7178C97.9297 17.8193 98.3047 17.9131 98.75 17.999C99.6641 18.1865 100.48 18.4326 101.199 18.7373C101.918 19.0342 102.488 19.4404 102.91 19.9561C103.332 20.4639 103.543 21.1318 103.543 21.96C103.543 22.5225 103.418 23.0381 103.168 23.5068C102.918 23.9756 102.559 24.3857 102.09 24.7373C101.621 25.0811 101.059 25.3506 100.402 25.5459C99.7539 25.7334 99.0234 25.8271 98.2109 25.8271C97.0312 25.8271 96.0312 25.6162 95.2109 25.1943C94.3984 24.7725 93.7812 24.2373 93.3594 23.5889C92.9453 22.9326 92.7383 22.2607 92.7383 21.5732H95.9375C95.9531 22.0342 96.0703 22.4053 96.2891 22.6865C96.5156 22.9678 96.8008 23.1709 97.1445 23.2959C97.4961 23.4209 97.875 23.4834 98.2812 23.4834C98.7188 23.4834 99.082 23.4248 99.3711 23.3076C99.6602 23.1826 99.8789 23.0186 100.027 22.8154C100.184 22.6045 100.262 22.3623 100.262 22.0889ZM111.57 25.8271C110.586 25.8271 109.703 25.6709 108.922 25.3584C108.141 25.0381 107.477 24.5967 106.93 24.0342C106.391 23.4717 105.977 22.8193 105.688 22.0771C105.398 21.3271 105.254 20.5303 105.254 19.6865V19.2178C105.254 18.2568 105.391 17.3779 105.664 16.5811C105.938 15.7842 106.328 15.0928 106.836 14.5068C107.352 13.9209 107.977 13.4717 108.711 13.1592C109.445 12.8389 110.273 12.6787 111.195 12.6787C112.094 12.6787 112.891 12.8271 113.586 13.124C114.281 13.4209 114.863 13.8428 115.332 14.3896C115.809 14.9365 116.168 15.5928 116.41 16.3584C116.652 17.1162 116.773 17.96 116.773 18.8896V20.2959H106.695V18.0459H113.457V17.7881C113.457 17.3193 113.371 16.9014 113.199 16.5342C113.035 16.1592 112.785 15.8623 112.449 15.6436C112.113 15.4248 111.684 15.3154 111.16 15.3154C110.715 15.3154 110.332 15.4131 110.012 15.6084C109.691 15.8037 109.43 16.0771 109.227 16.4287C109.031 16.7803 108.883 17.1943 108.781 17.6709C108.688 18.1396 108.641 18.6553 108.641 19.2178V19.6865C108.641 20.1943 108.711 20.6631 108.852 21.0928C109 21.5225 109.207 21.8936 109.473 22.2061C109.746 22.5186 110.074 22.7607 110.457 22.9326C110.848 23.1045 111.289 23.1904 111.781 23.1904C112.391 23.1904 112.957 23.0732 113.48 22.8389C114.012 22.5967 114.469 22.2334 114.852 21.749L116.492 23.5303C116.227 23.9131 115.863 24.2803 115.402 24.6318C114.949 24.9834 114.402 25.2725 113.762 25.499C113.121 25.7178 112.391 25.8271 111.57 25.8271ZM118.859 23.9639C118.859 23.4639 119.031 23.0459 119.375 22.71C119.727 22.374 120.191 22.2061 120.77 22.2061C121.348 22.2061 121.809 22.374 122.152 22.71C122.504 23.0459 122.68 23.4639 122.68 23.9639C122.68 24.4639 122.504 24.8818 122.152 25.2178C121.809 25.5537 121.348 25.7217 120.77 25.7217C120.191 25.7217 119.727 25.5537 119.375 25.2178C119.031 24.8818 118.859 24.4639 118.859 23.9639ZM135.758 19.9326H139.262C139.191 21.0811 138.875 22.1006 138.312 22.9912C137.758 23.8818 136.98 24.5771 135.98 25.0771C134.988 25.5771 133.793 25.8271 132.395 25.8271C131.301 25.8271 130.32 25.6396 129.453 25.2646C128.586 24.8818 127.844 24.335 127.227 23.624C126.617 22.9131 126.152 22.0537 125.832 21.0459C125.512 20.0381 125.352 18.9092 125.352 17.6592V16.4756C125.352 15.2256 125.516 14.0967 125.844 13.0889C126.18 12.0732 126.656 11.21 127.273 10.499C127.898 9.78809 128.645 9.24121 129.512 8.8584C130.379 8.47559 131.348 8.28418 132.418 8.28418C133.84 8.28418 135.039 8.54199 136.016 9.05762C137 9.57324 137.762 10.2842 138.301 11.1904C138.848 12.0967 139.176 13.1279 139.285 14.2842H135.77C135.73 13.5967 135.594 13.0146 135.359 12.5381C135.125 12.0537 134.77 11.6904 134.293 11.4482C133.824 11.1982 133.199 11.0732 132.418 11.0732C131.832 11.0732 131.32 11.1826 130.883 11.4014C130.445 11.6201 130.078 11.9521 129.781 12.3975C129.484 12.8428 129.262 13.4053 129.113 14.085C128.973 14.7568 128.902 15.5459 128.902 16.4521V17.6592C128.902 18.542 128.969 19.3193 129.102 19.9912C129.234 20.6553 129.438 21.2178 129.711 21.6787C129.992 22.1318 130.352 22.4756 130.789 22.71C131.234 22.9365 131.77 23.0498 132.395 23.0498C133.129 23.0498 133.734 22.9326 134.211 22.6982C134.688 22.4639 135.051 22.1162 135.301 21.6553C135.559 21.1943 135.711 20.6201 135.758 19.9326ZM140.82 19.3818V19.1357C140.82 18.2061 140.953 17.3506 141.219 16.5693C141.484 15.7803 141.871 15.0967 142.379 14.5186C142.887 13.9404 143.512 13.4912 144.254 13.1709C144.996 12.8428 145.848 12.6787 146.809 12.6787C147.77 12.6787 148.625 12.8428 149.375 13.1709C150.125 13.4912 150.754 13.9404 151.262 14.5186C151.777 15.0967 152.168 15.7803 152.434 16.5693C152.699 17.3506 152.832 18.2061 152.832 19.1357V19.3818C152.832 20.3037 152.699 21.1592 152.434 21.9482C152.168 22.7295 151.777 23.4131 151.262 23.999C150.754 24.5771 150.129 25.0264 149.387 25.3467C148.645 25.667 147.793 25.8271 146.832 25.8271C145.871 25.8271 145.016 25.667 144.266 25.3467C143.523 25.0264 142.895 24.5771 142.379 23.999C141.871 23.4131 141.484 22.7295 141.219 21.9482C140.953 21.1592 140.82 20.3037 140.82 19.3818ZM144.195 19.1357V19.3818C144.195 19.9131 144.242 20.4092 144.336 20.8701C144.43 21.3311 144.578 21.7373 144.781 22.0889C144.992 22.4326 145.266 22.7021 145.602 22.8975C145.938 23.0928 146.348 23.1904 146.832 23.1904C147.301 23.1904 147.703 23.0928 148.039 22.8975C148.375 22.7021 148.645 22.4326 148.848 22.0889C149.051 21.7373 149.199 21.3311 149.293 20.8701C149.395 20.4092 149.445 19.9131 149.445 19.3818V19.1357C149.445 18.6201 149.395 18.1357 149.293 17.6826C149.199 17.2217 149.047 16.8154 148.836 16.4639C148.633 16.1045 148.363 15.8232 148.027 15.6201C147.691 15.417 147.285 15.3154 146.809 15.3154C146.332 15.3154 145.926 15.417 145.59 15.6201C145.262 15.8232 144.992 16.1045 144.781 16.4639C144.578 16.8154 144.43 17.2217 144.336 17.6826C144.242 18.1357 144.195 18.6201 144.195 19.1357ZM158.211 15.6201V25.5928H154.836V12.9131H158L158.211 15.6201ZM157.719 18.8076H156.805C156.805 17.8701 156.926 17.0264 157.168 16.2764C157.41 15.5186 157.75 14.874 158.188 14.3428C158.625 13.8037 159.145 13.3936 159.746 13.1123C160.355 12.8232 161.035 12.6787 161.785 12.6787C162.379 12.6787 162.922 12.7646 163.414 12.9365C163.906 13.1084 164.328 13.3818 164.68 13.7568C165.039 14.1318 165.312 14.6279 165.5 15.2451C165.695 15.8623 165.793 16.6162 165.793 17.5068V25.5928H162.395V17.4951C162.395 16.9326 162.316 16.4951 162.16 16.1826C162.004 15.8701 161.773 15.6514 161.469 15.5264C161.172 15.3936 160.805 15.3271 160.367 15.3271C159.914 15.3271 159.52 15.417 159.184 15.5967C158.855 15.7764 158.582 16.0264 158.363 16.3467C158.152 16.6592 157.992 17.0264 157.883 17.4482C157.773 17.8701 157.719 18.3232 157.719 18.8076ZM174.57 12.9131V15.3037H167.188V12.9131H174.57ZM169.016 9.78418H172.391V21.7725C172.391 22.1396 172.438 22.4209 172.531 22.6162C172.633 22.8115 172.781 22.9482 172.977 23.0264C173.172 23.0967 173.418 23.1318 173.715 23.1318C173.926 23.1318 174.113 23.124 174.277 23.1084C174.449 23.085 174.594 23.0615 174.711 23.0381L174.723 25.5225C174.434 25.6162 174.121 25.6904 173.785 25.7451C173.449 25.7998 173.078 25.8271 172.672 25.8271C171.93 25.8271 171.281 25.7061 170.727 25.4639C170.18 25.2139 169.758 24.8154 169.461 24.2686C169.164 23.7217 169.016 23.0029 169.016 22.1123V9.78418ZM183.336 22.7334V17.085C183.336 16.6787 183.27 16.3311 183.137 16.042C183.004 15.7451 182.797 15.5146 182.516 15.3506C182.242 15.1865 181.887 15.1045 181.449 15.1045C181.074 15.1045 180.75 15.1709 180.477 15.3037C180.203 15.4287 179.992 15.6123 179.844 15.8545C179.695 16.0889 179.621 16.3662 179.621 16.6865H176.246C176.246 16.1475 176.371 15.6357 176.621 15.1514C176.871 14.667 177.234 14.2412 177.711 13.874C178.188 13.499 178.754 13.2061 179.41 12.9951C180.074 12.7842 180.816 12.6787 181.637 12.6787C182.621 12.6787 183.496 12.8428 184.262 13.1709C185.027 13.499 185.629 13.9912 186.066 14.6475C186.512 15.3037 186.734 16.124 186.734 17.1084V22.5342C186.734 23.2295 186.777 23.7998 186.863 24.2451C186.949 24.6826 187.074 25.0654 187.238 25.3936V25.5928H183.828C183.664 25.249 183.539 24.8193 183.453 24.3037C183.375 23.7803 183.336 23.2568 183.336 22.7334ZM183.781 17.8701L183.805 19.7803H181.918C181.473 19.7803 181.086 19.8311 180.758 19.9326C180.43 20.0342 180.16 20.1787 179.949 20.3662C179.738 20.5459 179.582 20.7568 179.48 20.999C179.387 21.2412 179.34 21.5068 179.34 21.7959C179.34 22.085 179.406 22.3467 179.539 22.5811C179.672 22.8076 179.863 22.9873 180.113 23.1201C180.363 23.2451 180.656 23.3076 180.992 23.3076C181.5 23.3076 181.941 23.2061 182.316 23.0029C182.691 22.7998 182.98 22.5498 183.184 22.2529C183.395 21.9561 183.504 21.6748 183.512 21.4092L184.402 22.8389C184.277 23.1592 184.105 23.4912 183.887 23.835C183.676 24.1787 183.406 24.5029 183.078 24.8076C182.75 25.1045 182.355 25.3506 181.895 25.5459C181.434 25.7334 180.887 25.8271 180.254 25.8271C179.449 25.8271 178.719 25.667 178.062 25.3467C177.414 25.0186 176.898 24.5693 176.516 23.999C176.141 23.4209 175.953 22.7646 175.953 22.0303C175.953 21.3662 176.078 20.7764 176.328 20.2607C176.578 19.7451 176.945 19.3115 177.43 18.96C177.922 18.6006 178.535 18.3311 179.27 18.1514C180.004 17.9639 180.855 17.8701 181.824 17.8701H183.781ZM194.574 23.1904C194.988 23.1904 195.355 23.1123 195.676 22.9561C195.996 22.792 196.246 22.5654 196.426 22.2764C196.613 21.9795 196.711 21.6318 196.719 21.2334H199.895C199.887 22.124 199.648 22.917 199.18 23.6123C198.711 24.2998 198.082 24.8428 197.293 25.2412C196.504 25.6318 195.621 25.8271 194.645 25.8271C193.66 25.8271 192.801 25.6631 192.066 25.335C191.34 25.0068 190.734 24.5537 190.25 23.9756C189.766 23.3896 189.402 22.71 189.16 21.9365C188.918 21.1553 188.797 20.3193 188.797 19.4287V19.0889C188.797 18.1904 188.918 17.3545 189.16 16.5811C189.402 15.7998 189.766 15.1201 190.25 14.542C190.734 13.9561 191.34 13.499 192.066 13.1709C192.793 12.8428 193.645 12.6787 194.621 12.6787C195.66 12.6787 196.57 12.8779 197.352 13.2764C198.141 13.6748 198.758 14.2451 199.203 14.9873C199.656 15.7217 199.887 16.5928 199.895 17.6006H196.719C196.711 17.1787 196.621 16.7959 196.449 16.4521C196.285 16.1084 196.043 15.835 195.723 15.6318C195.41 15.4209 195.023 15.3154 194.562 15.3154C194.07 15.3154 193.668 15.4209 193.355 15.6318C193.043 15.835 192.801 16.1162 192.629 16.4756C192.457 16.8271 192.336 17.2295 192.266 17.6826C192.203 18.1279 192.172 18.5967 192.172 19.0889V19.4287C192.172 19.9209 192.203 20.3936 192.266 20.8467C192.328 21.2998 192.445 21.7021 192.617 22.0537C192.797 22.4053 193.043 22.6826 193.355 22.8857C193.668 23.0889 194.074 23.1904 194.574 23.1904ZM208.062 12.9131V15.3037H200.68V12.9131H208.062ZM202.508 9.78418H205.883V21.7725C205.883 22.1396 205.93 22.4209 206.023 22.6162C206.125 22.8115 206.273 22.9482 206.469 23.0264C206.664 23.0967 206.91 23.1318 207.207 23.1318C207.418 23.1318 207.605 23.124 207.77 23.1084C207.941 23.085 208.086 23.0615 208.203 23.0381L208.215 25.5225C207.926 25.6162 207.613 25.6904 207.277 25.7451C206.941 25.7998 206.57 25.8271 206.164 25.8271C205.422 25.8271 204.773 25.7061 204.219 25.4639C203.672 25.2139 203.25 24.8154 202.953 24.2686C202.656 23.7217 202.508 23.0029 202.508 22.1123V9.78418Z" fill="#24A6C6"/>
</svg>
