<svg width="32" height="35" viewBox="0 0 32 35" fill="none" xmlns="http://www.w3.org/2000/svg">
<path d="M7.7914 35C7.4568 35 7.13017 34.9209 6.82743 34.7628C6.15823 34.407 5.74397 33.7192 5.74397 32.9681V30.122H5.33767C2.39 30.1141 0 27.7423 0 24.8249V5.28913C0 2.37181 2.39 0 5.3297 0H26.6565C29.5962 0 31.9862 2.37181 31.9862 5.28913V24.8249C31.9862 27.7423 29.5962 30.1141 26.6565 30.1141H15.7899L8.92267 34.6521C8.58807 34.8893 8.18973 35 7.7914 35ZM5.3297 4.07161C4.65253 4.07161 4.10283 4.61712 4.10283 5.28913V24.8249C4.10283 25.497 4.65253 26.0425 5.3297 26.0425H7.7914C8.92267 26.0425 9.83883 26.9517 9.83883 28.0743V29.1574L14.0293 26.3824C14.3639 26.1611 14.7622 26.0425 15.1685 26.0425H26.6565C27.3336 26.0425 27.8833 25.497 27.8833 24.8249V5.28913C27.8833 4.61712 27.3336 4.07161 26.6565 4.07161H5.3297Z" fill="#24A6C6"/>
<path d="M23.5893 17.0928H18.9049C17.7736 17.0928 16.8574 16.1836 16.8574 15.061C16.8574 13.9383 17.7736 13.0291 18.9049 13.0291H23.5893C24.7205 13.0291 25.6367 13.9383 25.6367 15.061C25.6367 16.1836 24.7205 17.0928 23.5893 17.0928Z" fill="#24A6C6"/>
<path d="M13.0814 17.0928H8.39704C7.26578 17.0928 6.34961 16.1836 6.34961 15.061C6.34961 13.9383 7.26578 13.0291 8.39704 13.0291H13.0814C14.2127 13.0291 15.1289 13.9383 15.1289 15.061C15.1289 16.1836 14.2127 17.0928 13.0814 17.0928Z" fill="#24A6C6"/>
</svg>
