<svg width="28" height="29" viewBox="0 0 28 29" fill="none" xmlns="http://www.w3.org/2000/svg">
<g clip-path="url(#clip0_106_268)">
<path fill-rule="evenodd" clip-rule="evenodd" d="M27.8515 14.7768C27.8515 22.4295 21.6478 28.6332 13.9951 28.6332C6.3424 28.6332 0.138672 22.4295 0.138672 14.7768C0.138672 7.12414 6.3424 0.92041 13.9951 0.92041C21.6478 0.92041 27.8515 7.12414 27.8515 14.7768ZM14.4916 11.1498C13.1439 11.7104 10.4503 12.8706 6.41088 14.6305C5.75494 14.8914 5.41133 15.1466 5.38005 15.3961C5.32719 15.8178 5.85526 15.9838 6.57436 16.2099C6.67218 16.2407 6.77353 16.2726 6.87743 16.3063C7.58492 16.5363 8.53661 16.8054 9.03135 16.8161C9.48013 16.8257 9.98102 16.6407 10.534 16.261C14.3082 13.7133 16.2564 12.4256 16.3787 12.3979C16.465 12.3783 16.5846 12.3537 16.6656 12.4257C16.7466 12.4977 16.7387 12.6341 16.7301 12.6706C16.6778 12.8937 14.6049 14.8208 13.5322 15.8181C13.1978 16.129 12.9606 16.3495 12.9121 16.3999C12.8034 16.5127 12.6927 16.6195 12.5863 16.722C11.929 17.3556 11.4362 17.8308 12.6136 18.6067C13.1794 18.9796 13.6322 19.2879 14.0839 19.5956C14.5773 19.9315 15.0693 20.2666 15.7059 20.6839C15.8681 20.7902 16.023 20.9006 16.1739 21.0082C16.748 21.4175 17.2637 21.7852 17.901 21.7265C18.2712 21.6925 18.6537 21.3443 18.8479 20.3059C19.3069 17.8519 20.2092 12.5349 20.4178 10.3439C20.436 10.1519 20.4131 9.90626 20.3946 9.79841C20.3761 9.69057 20.3376 9.53691 20.1974 9.42316C20.0314 9.28845 19.7751 9.26004 19.6605 9.26206C19.1393 9.27124 18.3397 9.54928 14.4916 11.1498Z" fill="#71717B"/>
</g>
<defs>
<clipPath id="clip0_106_268">
<rect width="27.7128" height="27.7128" fill="white" transform="translate(0.138672 0.92041)"/>
</clipPath>
</defs>
</svg>
