<?xml version="1.0" encoding="utf-8"?>
<!-- Generator: Adobe Illustrator 26.2.1, SVG Export Plug-In . SVG Version: 6.00 Build 0)  -->
<svg version="1.1" id="icon" xmlns="http://www.w3.org/2000/svg" xmlns:xlink="http://www.w3.org/1999/xlink" x="0px" y="0px"
	 viewBox="0 0 512 512" style="enable-background:new 0 0 512 512;" xml:space="preserve">
<style type="text/css">
	.st0{fill:#24A6C6;}
</style>
<g>
	<path class="st0" d="M336.5,453.5l160.7-160.7c19.7-19.7,19.7-54.1,0-73.8L336.5,58.4c-10-10-26.2-10-36.3,0c-10,10-10,26.2,0,36.3
		l134.6,135.7H25.6C11.4,230.4,0,241.9,0,256c0,14.1,11.4,25.6,25.6,25.6h410.2L300.2,417.2c-5,5-7.5,11.5-7.5,18.1
		s2.5,13.1,7.5,18.1C310.2,463.6,326.3,463.6,336.5,453.5z"/>
</g>
</svg>
