<?xml version="1.0" encoding="utf-8"?>
<!-- Generator: Adobe Illustrator 26.2.1, SVG Export Plug-In . SVG Version: 6.00 Build 0)  -->
<svg version="1.1" id="Layer_1" xmlns="http://www.w3.org/2000/svg" xmlns:xlink="http://www.w3.org/1999/xlink" x="0px" y="0px"
	 viewBox="0 0 50 50" style="enable-background:new 0 0 50 50;" xml:space="preserve">
<style type="text/css">
	.st0{fill:#00247D;}
	.st1{fill:#CF1B2B;}
	.st2{fill:#EEEEEE;}
</style>
<g>
	<path class="st0" d="M-9.6,7.8v7.6H1.2L-9.6,7.8z M-0.6,50h16V38.8L-0.6,50z M34.6,38.8V50h16L34.6,38.8z M-9.6,34.6v7.6l10.8-7.6
		H-9.6z M50.6,0h-16v11.2L50.6,0z M59.6,42.2v-7.6H48.8L59.6,42.2z M59.6,15.4V7.8l-10.8,7.6H59.6z M15.4,0h-16l16,11.2V0z"/>
	<path class="st1" d="M38.7,34.6l18.7,13.1c0.9-0.9,1.6-2.1,1.9-3.4l-13.9-9.7H38.7z M15.4,34.6h-4.1L-7.4,47.7c1,1,2.3,1.7,3.7,2.1
		l19.1-13.3V34.6z M34.6,15.4h4.1L57.4,2.3c-1-1-2.3-1.8-3.7-2.1L34.6,13.6V15.4z M11.3,15.4L-7.4,2.3C-8.3,3.2-9,4.4-9.3,5.7
		l13.9,9.7H11.3z"/>
	<path class="st2" d="M59.6,30.8H30.8V50h3.8V38.8l16,11.2h1.3c2.1,0,4-0.8,5.5-2.3L38.7,34.6h6.7l13.9,9.7c0.2-0.6,0.3-1.3,0.3-2
		v-0.1l-10.8-7.6h10.8V30.8z M-9.6,30.8v3.8H1.2l-10.8,7.6v0.1c0,2.1,0.8,4,2.2,5.4l18.7-13.1h4.1v1.8L-3.7,49.8
		c0.6,0.1,1.2,0.2,1.8,0.2h1.3l16-11.2V50h3.8V30.8H-9.6z M59.6,7.7c0-2-0.8-4-2.2-5.4L38.7,15.4h-4.1v-1.8L53.7,0.2
		C53.1,0.1,52.5,0,51.9,0h-1.3l-16,11.2V0h-3.8v19.2h28.8v-3.8H48.8l10.8-7.6V7.7z M15.4,0v11.2L-0.6,0h-1.3C-4,0-6,0.8-7.4,2.3
		l18.7,13.1H4.6L-9.3,5.7c-0.2,0.7-0.3,1.3-0.3,2v0.1l10.8,7.6H-9.6v3.8h28.8V0H15.4z"/>
	<path class="st1" d="M30.8,19.2V0H19.2v19.2H-9.6v11.5h28.8V50h11.5V30.8h28.8V19.2H30.8z"/>
</g>
</svg>
