<?xml version="1.0" encoding="utf-8"?>
<!-- Generator: Adobe Illustrator 26.2.1, SVG Export Plug-In . SVG Version: 6.00 Build 0)  -->
<svg version="1.1" id="Layer_1" xmlns="http://www.w3.org/2000/svg" xmlns:xlink="http://www.w3.org/1999/xlink" x="0px" y="0px"
	 viewBox="0 0 50 50" style="enable-background:new 0 0 50 50;" xml:space="preserve">
<style type="text/css">
	.st0{fill:#C60A1D;}
	.st1{fill:#FFC400;}
	.st2{fill:#EA596E;}
	.st3{fill:#F4A2B2;}
	.st4{fill:#DD2E44;}
	.st5{fill:#FFAC33;}
	.st6{fill:#99AAB5;}
	.st7{fill:#66757F;}
</style>
<g>
	<path class="st0" d="M59.6,42.3c0,4.2-3.4,7.7-7.7,7.7H-1.9c-4.2,0-7.7-3.4-7.7-7.7V7.7C-9.6,3.4-6.2,0-1.9,0h53.8
		c4.2,0,7.7,3.4,7.7,7.7V42.3z"/>
	<path class="st1" d="M-9.6,13.5h69.2v23.1H-9.6V13.5z"/>
	<g>
		<path class="st2" d="M19.2,23.1v5.8c0,3.2,2.6,5.8,5.8,5.8s5.8-2.6,5.8-5.8v-5.8H19.2z"/>
		<path class="st3" d="M25,21.2h5.8v5.8H25V21.2z"/>
		<path class="st4" d="M19.2,21.2H25v5.8h-5.8V21.2z"/>
		<ellipse class="st2" cx="25" cy="18.3" rx="5.8" ry="2.9"/>
		<ellipse class="st5" cx="25" cy="16.8" rx="5.8" ry="1.4"/>
		<path class="st6" d="M15.4,21.2h1.9v13.5h-1.9V21.2z M32.7,21.2h1.9v13.5h-1.9V21.2z"/>
		<path class="st7" d="M13.5,32.7h5.8v1.9h-5.8V32.7z M30.8,32.7h5.8v1.9h-5.8V32.7z M15.4,19.2h1.9v1.9h-1.9V19.2z M32.7,19.2h1.9
			v1.9h-1.9V19.2z"/>
	</g>
</g>
</svg>
