<?xml version="1.0" encoding="utf-8"?>
<!-- Generator: Adobe Illustrator 26.2.1, SVG Export Plug-In . SVG Version: 6.00 Build 0)  -->
<svg version="1.1" id="icon" xmlns="http://www.w3.org/2000/svg" xmlns:xlink="http://www.w3.org/1999/xlink" x="0px" y="0px"
	 viewBox="0 0 512 512" style="enable-background:new 0 0 512 512;" xml:space="preserve">
<style type="text/css">
	.st0{fill:#24A6C6;}
</style>
<g>
	<path class="st0" d="M448,405.3"/>
	<path class="st0" d="M64,405.3"/>
	<path class="st0" d="M405.3,192h-42.7v-85.2c0-15.3-7.9-29.1-21.1-36.8c-13.2-7.8-29-7.9-42.4-0.5L74.9,194.7c-1.2,0.6-2,1.6-3,2.4
		c-0.7,0.6-1.4,1-2,1.6c-1.8,1.9-3.2,3.9-4.2,6.3c-0.1,0.1-0.1,0.3-0.1,0.5c-0.9,2.3-1.4,4.7-1.4,7.1c0,0.3-0.1,0.5-0.1,0.7v192
		c0,23.5,19.1,42.7,42.7,42.7h298.7c23.5,0,42.7-19.1,42.7-42.7v-51.2v-68.2v-51.2C448,211.1,428.9,192,405.3,192z M320,106.8V192
		H167.3L320,106.8z M106.7,405.3V234.7h234.7h64v29.9h-46.9c-21.2,0-38.4,17.2-38.4,38.4v34.1c0,21.2,17.2,38.4,38.4,38.4h47v29.9
		H106.7V405.3z M405.3,307.2v25.6h-42.7v-25.6H405.3z"/>
</g>
</svg>
